<?xml version="1.0" encoding="utf-8"?>
<!-- Generator: Adobe Illustrator 22.1.0, SVG Export Plug-In . SVG Version: 6.00 Build 0)  -->
<svg version="1.1" id="Layer_1" xmlns="http://www.w3.org/2000/svg" xmlns:xlink="http://www.w3.org/1999/xlink" x="0px" y="0px"
	 viewBox="0 0 554 155" style="enable-background:new 0 0 554 155;" xml:space="preserve">
<style type="text/css">
	.st0{fill:#71AEE6;}
	.st1{fill:#CC312D;}
</style>
<g>
	<path d="M77,89.3v-6.4h37.2v6.4c-3,0.5-4.9,1.4-5.8,2.6c-0.9,1.2-1.3,3.8-1.3,7.6v16.6c-1.3-0.1-2.3-0.1-3-0.1
		c-3.9,0-10.4,1-19.6,3c-6.6,1.4-12.1,2.1-16.6,2.1c-12.1,0-21.8-4-29.3-12.1C31,101,27.3,91.6,27.3,80.8c0-11.5,3.9-21.4,11.8-29.7
		c7.9-8.3,17.6-12.5,29.3-12.5c9.5,0,17.8,3,25,9.1c1.2-2.6,2-5.3,2.3-8.3h6.3l0.7,27.8h-6.4C92.2,53.7,84.4,47,72.7,47
		c-7,0-12.3,2.6-15.9,7.7c-3.7,5.1-5.5,13.7-5.5,25.8c0,8.5,0.5,14.9,1.6,19.3c1.1,4.4,3.1,7.8,6.2,10.3c3.1,2.4,7,3.6,11.9,3.6
		c4.3,0,7.9-0.9,10.8-2.8c2.9-1.9,4.3-5.6,4.3-11.1v-2.9C86.1,92.2,83.1,89.7,77,89.3z"/>
	<path d="M146.6,69.6v35.9c0,3,0.5,5,1.4,6.1s3.1,1.7,6.6,1.7v6.2h-35.9v-6.2h1.3c3.3,0,5.4-0.6,6.3-1.8s1.3-3.2,1.3-6V88
		c0-2.9-0.4-4.9-1.3-6.1c-0.9-1.2-3-1.7-6.3-1.7h-1.3V74L146.6,69.6z M126.9,49.2c0-2.9,1-5.4,3.1-7.5c2.1-2.1,4.6-3.1,7.4-3.1
		c2.9,0,5.4,1,7.4,3.1c2,2.1,3,4.6,3,7.5s-1,5.4-3.1,7.5c-2.1,2.1-4.5,3.1-7.4,3.1c-3,0-5.5-1.1-7.5-3.2
		C127.9,54.5,126.9,52.1,126.9,49.2z"/>
	<path d="M185,77.8v25c0,4.2,0.3,6.9,0.8,8.3c0.5,1.3,1.7,2,3.4,2c2.6,0,4.6-1.6,6.2-4.8l5.7,1.9c-3,7.4-9.3,11.1-19,11.1
		c-5.4,0-9.4-1.3-12.1-3.9c-2.7-2.6-4-6.5-4-11.7v-28h-7v-6.3l1.5,0.1c4.7,0,8.8-1.5,12.1-4.5c3.4-3,5.4-6.8,6.1-11.5h6.3v15.9h14.4
		v6.3H185z"/>
</g>
<path class="st0" d="M313.3,47.9c-1.6,10.5-5.3,22.1-11,34.8c-7.6,16.7-15,24.4-22.4,23.3c-6.4-1-10.5-5.8-12.2-14.5
	c-1-4.9-1.1-11.9-0.6-21c-3.8,10.1-6.6,16.8-8.5,20.1c-4.9,9-9.7,13.1-14.6,12.3c-3.6-0.6-6.6-2.6-9.1-6.1c-3.3-4.6-4.3-17.4-3-38.6
	c0.8-14.5,2.2-28.4,4.3-41.6c1.1-7.1,4.7-10.2,10.7-9.2c5.4,0.8,8,2.5,7.6,5c-0.2,1.1-0.7,2.2-1.5,3.4s-1.7,2.3-2.5,3.4
	c-1.5,2.2-2.9,7.1-4.1,14.8c-5.4,35.2-5.4,53.2,0,54.1c1.9,0.3,5.3-6.2,10.2-19.5c5.8-15.7,9.3-27.8,10.7-36.5
	c0.2-1.3,1.3-2.5,3.2-3.5c1.9-1.1,3.6-1.5,5-1.3c2.8,0.4,5.1,1.8,7.1,4.1c2,2.3,2.9,4.8,2.7,7.6c-2.3,2.4-3.9,7.2-5,14.4
	c-4,25.9-3.5,39.3,1.3,40c4.7,0.7,9.5-6.1,14.3-20.5c3.3-10,5.6-19.2,7-27.8c0.6-3.6,0.8-6.3,0.6-8.1c-0.1-1.8-0.8-4.6-1.9-8.4
	c-1-3.2-1.4-5.5-1.2-7c0.3-2.2,1.2-4.2,2.5-5.9c1.6-2.1,3.5-3,5.5-2.7c2.9,0.4,4.6,5.7,5.3,15.8C314.2,36.7,314,43.1,313.3,47.9z"/>
<path class="st0" d="M359.5,121.6c-2,1.5-4.5,2-7.3,1.6c-1.9-0.3-3.7-1.8-5.4-4.5c1.2-8.1,2.2-14.4,2.9-18.8
	c3.1-20.4,1.8-31.1-4.1-32c-6.1-0.9-10.4,6.8-12.9,23.3c-0.1,0.9-0.3,2.3-0.6,4c-0.3,1.8-0.5,3.1-0.6,4c-0.2,1.4-0.3,3.5-0.3,6.4
	c0,2.9-0.1,5-0.3,6.4c-0.2,1.2-1.1,2.2-2.6,2.9c-1.6,0.7-3,1-4.2,0.8c-2.3-0.4-4.1-1.6-5.4-3.7c-1.3-2.1-1.8-4.4-1.5-6.7L330,25.5
	c0-0.3,0.1-0.6,0.2-1.1c0.1-0.5,0.1-0.8,0.1-1c0.5-3.3,2.6-4.7,6.3-4.1c1.7,0.3,3.7,1.4,5.7,3.4c2.1,2,3,3.8,2.7,5.5
	c-0.3,2-1.2,5-2.7,8.8c-1.5,3.8-2.4,6.8-2.7,8.8c-0.4,2.6-0.9,6.7-1.6,12.4c2.2-0.9,4-1.2,5.4-1c3.6,0.6,7.4,2,11.3,4.4
	c5.1,3.1,8.3,7.4,9.6,12.9c1,4.1,0.9,9.6-0.1,16.4L359.5,121.6z"/>
<path class="st0" d="M420.4,100.9c-1.3,8.3-4.4,15.1-9.5,20.3c-5.8,6-12.7,8.4-20.6,7.2c-8.1-1.2-13.8-4.9-17.1-11.1
	c-3-5.5-3.9-12.4-2.6-20.8c1.3-8.3,4.5-15.8,9.8-22.5c6.1-8,13-11.4,20.7-10.3c2.4,0.4,5.2,1.9,8.5,4.6
	C418.9,76,422.5,86.9,420.4,100.9z M408.3,98.7c2.2-14.1-0.2-21.7-7-22.7c-4.9-0.7-9,1.7-12.4,7.3c-2.5,4.2-4.2,9.2-5.1,14.9
	c-1.9,12.2,0.8,18.9,8.1,20c4.7,0.7,8.6-1.3,11.7-6C405.9,108.7,407.4,104.2,408.3,98.7z"/>
<path class="st1" d="M536.7,60.1c-1.3,8.4-7.5,15.7-18.7,21.7c-3.4,2-13.5,6-30.2,12.3c-10.8,4.1-16.6,8-17.1,11.7
	c-0.2,1,0.3,2.9,1.3,5.5c1,2.6,1.3,5,0.9,7.2l-0.2,1.3c-1.6,0.1-3.2,0.1-4.9-0.2c-4-0.6-7.7-2.8-11.2-6.4c-3.8-4-5.5-7.9-4.9-11.8
	c1-6.7,6.9-12.3,17.7-16.9c9.7-3.7,19.5-7.4,29.4-11c10.7-4.6,16.5-10.2,17.5-16.6c0.7-4.9-0.6-9.1-4.2-12.6
	c-3.2-3.1-7.3-5.1-12.5-5.8c-4.7-0.7-11.4,0.2-20,2.8c-8.6,2.6-15,5.6-19.1,8.8c4.7,1.9,6.8,4.4,6.3,7.5c-0.4,2.4-2.1,4.5-5.2,6.1
	c-3.1,1.6-5.9,2.2-8.4,1.8c-3.3-0.5-6.7-2.7-10-6.4c-3.3-3.8-4.8-7.3-4.3-10.5c0.8-5.1,6.1-10.6,15.9-16.4c8.4-5,15.8-8.1,22.3-9.4
	c9.5-2,16.8-2.5,21.9-1.7c8.8,1.4,17.4,5.9,25.8,13.6C534,43.3,537.9,51.8,536.7,60.1z M473,139.3c-0.3,1.9-2.4,3.6-6.3,4.9
	c-3.3,1.3-6.2,1.8-8.5,1.4c-2.4-0.4-4.9-1.7-7.4-4.1c-2.5-2.4-3.6-4.7-3.2-7.2c0.4-2.3,1.8-4.1,4.4-5.5c2.6-1.4,5.1-1.9,7.5-1.5
	c2.9,0.5,6,1.9,9.2,4.4C472,134.2,473.4,136.7,473,139.3z"/>
</svg>
