<?xml version="1.0" standalone="no"?>
<!DOCTYPE svg PUBLIC "-//W3C//DTD SVG 20010904//EN"
 "http://www.w3.org/TR/2001/REC-SVG-20010904/DTD/svg10.dtd">
<svg version="1.0" xmlns="http://www.w3.org/2000/svg"
 width="700.000000pt" height="700.000000pt" viewBox="0 0 700.000000 700.000000"
 preserveAspectRatio="xMidYMid meet">
<metadata>
Created by potrace 1.11, written by Peter Selinger 2001-2013
</metadata>
<g transform="translate(0.000000,700.000000) scale(0.100000,-0.100000)"
fill="#000000" stroke="none">
<path d="M3628 6335 c-1 -1 -39 -6 -83 -9 -44 -3 -96 -8 -115 -12 -56 -8 -222
-34 -260 -40 -58 -9 -249 -53 -324 -75 -167 -48 -327 -115 -541 -224 -765
-390 -1094 -756 -979 -1088 76 -221 338 -482 554 -552 54 -18 189 -25 240 -13
130 30 264 97 337 166 72 69 107 140 107 222 0 112 -66 196 -214 270 l-71 36
94 61 c144 94 446 233 627 288 25 8 77 24 115 36 92 28 316 87 357 94 18 4 52
10 75 15 22 5 65 13 95 16 29 3 74 10 99 13 82 13 280 6 374 -13 198 -41 350
-117 485 -243 134 -125 209 -290 208 -463 -1 -190 -71 -350 -220 -498 -56 -56
-198 -172 -211 -172 -3 0 -29 -16 -59 -35 -63 -42 -296 -157 -353 -175 -22 -7
-53 -18 -70 -25 -16 -7 -95 -36 -175 -65 -80 -29 -323 -120 -540 -202 -217
-82 -415 -156 -440 -165 -89 -30 -327 -152 -430 -220 -277 -183 -432 -412
-431 -637 1 -184 125 -391 340 -567 100 -82 223 -145 336 -173 69 -18 274 -31
276 -18 0 4 2 16 5 27 24 117 12 215 -48 385 -48 137 -55 221 -24 284 43 86
188 201 371 294 139 70 194 93 550 229 50 19 99 38 110 43 11 4 36 13 55 20
19 7 44 16 55 21 11 5 67 27 125 48 122 46 406 157 435 171 11 5 65 28 120 51
621 259 1006 610 1117 1019 32 117 32 346 0 462 -99 363 -408 746 -847 1050
-249 173 -564 309 -795 343 -25 4 -49 9 -54 13 -11 6 -371 13 -378 7z"/>
<path d="M2071 1519 c-89 -17 -214 -78 -274 -134 -67 -64 -107 -161 -101 -244
12 -164 234 -382 444 -436 75 -20 190 -16 283 9 86 24 248 86 279 107 14 11
30 19 36 19 20 0 91 90 103 130 36 121 -57 265 -258 401 -184 124 -360 175
-512 148z"/>
</g>
</svg>
